<svg width="202" height="151" viewBox="0 0 202 151" fill="none" xmlns="http://www.w3.org/2000/svg">
<path d="M11.3492 77.9359C19.1492 61.5359 26.7492 49.6359 34.0492 42.0359C41.3492 34.3359 47.8492 31.4359 53.4492 31.4359C59.0492 31.4359 65.5492 34.3359 72.8492 42.0359C73.2492 42.4359 73.6492 42.8359 74.0492 43.3359C75.4492 39.1359 79.2492 36.3359 83.4492 35.9359C82.8492 35.2359 82.1492 34.5359 81.5492 33.8359C73.0492 24.8359 63.6492 19.4359 53.4492 19.4359C43.2492 19.4359 33.8492 24.8359 25.3492 33.8359C16.8492 42.8359 8.54923 55.9359 0.549226 72.9359C-0.850774 75.9359 0.549229 79.5359 3.34923 80.9359C6.34923 82.3359 9.94923 80.9359 11.3492 78.1359V77.9359Z" fill="url(#paint0_linear_1283_6)"/>
<path d="M109.049 102.436C112.749 108.136 116.549 112.936 120.349 117.036C128.849 126.036 138.249 131.436 148.449 131.436C158.649 131.436 168.049 126.036 176.549 117.036C185.049 108.036 193.349 94.9359 201.349 77.9359C202.749 74.9359 201.449 71.3359 198.549 69.9359C195.549 68.5359 191.949 69.9359 190.549 72.7359C182.749 89.1359 175.149 101.036 167.849 108.636C160.549 116.336 154.049 119.236 148.449 119.236C142.849 119.236 136.349 116.336 129.049 108.636C125.949 105.336 122.749 101.236 119.449 96.3359C115.949 98.3359 112.549 100.436 109.049 102.436Z" fill="url(#paint1_linear_1283_6)"/>
<path d="M134.249 75.5359C134.349 77.8359 133.249 79.9359 131.249 81.1359C117.649 88.8359 103.949 96.6359 90.3492 104.336C90.1492 104.436 86.9492 105.836 83.9492 104.036C81.0492 102.336 80.7492 99.1359 80.7492 98.8359V51.6359C80.7492 51.4359 80.6492 48.0359 83.4492 46.1359C85.4492 44.7359 88.1492 44.8359 90.3492 46.1359C103.949 54.3359 117.649 62.4359 131.249 70.6359C131.449 70.7359 134.049 72.4359 134.249 75.5359Z" fill="url(#paint2_linear_1283_6)"/>
<path d="M115.349 0.335896C122.949 0.935896 161.149 3.93591 179.549 31.7359C183.049 37.0359 191.749 49.9359 186.649 61.7359C183.649 68.6359 176.549 73.9359 168.649 75.1359C158.949 76.5359 151.649 71.1359 149.549 69.5359C139.849 62.1359 141.349 53.3359 134.349 40.2359C133.649 38.9359 123.749 20.9359 105.049 12.3359C84.3492 2.8359 63.1492 9.7359 56.3492 12.3359C67.9492 6.4359 89.0492 -1.7641 115.349 0.335896Z" fill="url(#paint3_linear_1283_6)"/>
<path d="M146.849 138.336C135.249 144.236 114.149 152.436 87.9492 150.336C80.3492 149.736 42.2492 146.636 23.7492 118.936C20.2492 113.636 11.5492 100.736 16.6492 88.9359C19.6492 82.0359 26.7492 76.7359 34.6492 75.5359C44.3492 74.1359 51.6492 79.5359 53.7492 81.1359C63.4492 88.5359 61.9492 97.3359 68.9492 110.436C69.6492 111.836 79.6492 129.836 98.2492 138.336C118.949 147.836 139.949 140.936 146.849 138.336Z" fill="url(#paint4_linear_1283_6)"/>
<defs>
<linearGradient id="paint0_linear_1283_6" x1="100.957" y1="0" x2="100.957" y2="150.672" gradientUnits="userSpaceOnUse">
<stop stop-color="#CC55FF"/>
<stop offset="1" stop-color="#55CCFF"/>
</linearGradient>
<linearGradient id="paint1_linear_1283_6" x1="100.957" y1="0" x2="100.957" y2="150.672" gradientUnits="userSpaceOnUse">
<stop stop-color="#CC55FF"/>
<stop offset="1" stop-color="#55CCFF"/>
</linearGradient>
<linearGradient id="paint2_linear_1283_6" x1="100.957" y1="0" x2="100.957" y2="150.672" gradientUnits="userSpaceOnUse">
<stop stop-color="#CC55FF"/>
<stop offset="1" stop-color="#55CCFF"/>
</linearGradient>
<linearGradient id="paint3_linear_1283_6" x1="100.957" y1="0" x2="100.957" y2="150.672" gradientUnits="userSpaceOnUse">
<stop stop-color="#CC55FF"/>
<stop offset="1" stop-color="#55CCFF"/>
</linearGradient>
<linearGradient id="paint4_linear_1283_6" x1="100.957" y1="0" x2="100.957" y2="150.672" gradientUnits="userSpaceOnUse">
<stop stop-color="#CC55FF"/>
<stop offset="1" stop-color="#55CCFF"/>
</linearGradient>
</defs>
</svg>
