<svg width="256" height="256" viewBox="0 0 256 256" fill="none" xmlns="http://www.w3.org/2000/svg">
<rect width="256" height="256" fill="black"/>
<path d="M38.3492 130.936C46.1492 114.536 53.7492 102.636 61.0492 95.0359C68.3492 87.3359 74.8492 84.4359 80.4492 84.4359C86.0492 84.4359 92.5492 87.3359 99.8492 95.0359C100.249 95.4359 100.649 95.8359 101.049 96.3359C102.449 92.1359 106.249 89.3359 110.449 88.9359C109.849 88.2359 109.149 87.5359 108.549 86.8359C100.049 77.8359 90.6492 72.4359 80.4492 72.4359C70.2492 72.4359 60.8492 77.8359 52.3492 86.8359C43.8492 95.8359 35.5492 108.936 27.5492 125.936C26.1492 128.936 27.5492 132.536 30.3492 133.936C33.3492 135.336 36.9492 133.936 38.3492 131.136V130.936Z" fill="url(#paint0_linear_70_33)"/>
<path d="M136.049 155.436C139.749 161.136 143.549 165.936 147.349 170.036C155.849 179.036 165.249 184.436 175.449 184.436C185.649 184.436 195.049 179.036 203.549 170.036C212.049 161.036 220.349 147.936 228.349 130.936C229.749 127.936 228.449 124.336 225.549 122.936C222.549 121.536 218.949 122.936 217.549 125.736C209.749 142.136 202.149 154.036 194.849 161.636C187.549 169.336 181.049 172.236 175.449 172.236C169.849 172.236 163.349 169.336 156.049 161.636C152.949 158.336 149.749 154.236 146.449 149.336C142.949 151.336 139.549 153.436 136.049 155.436Z" fill="url(#paint1_linear_70_33)"/>
<path d="M161.249 128.536C161.349 130.836 160.249 132.936 158.249 134.136C144.649 141.836 130.949 149.636 117.349 157.336C117.149 157.436 113.949 158.836 110.949 157.036C108.049 155.336 107.749 152.136 107.749 151.836V104.636C107.749 104.436 107.649 101.036 110.449 99.1359C112.449 97.7359 115.149 97.8359 117.349 99.1359C130.949 107.336 144.649 115.436 158.249 123.636C158.449 123.736 161.049 125.436 161.249 128.536Z" fill="url(#paint2_linear_70_33)"/>
<path d="M142.349 53.3359C149.949 53.9359 188.149 56.9359 206.549 84.7359C210.049 90.0359 218.749 102.936 213.649 114.736C210.649 121.636 203.549 126.936 195.649 128.136C185.949 129.536 178.649 124.136 176.549 122.536C166.849 115.136 168.349 106.336 161.349 93.2359C160.649 91.9359 150.749 73.9359 132.049 65.3359C111.349 55.8359 90.1492 62.7359 83.3492 65.3359C94.9492 59.4359 116.049 51.2359 142.349 53.3359Z" fill="url(#paint3_linear_70_33)"/>
<path d="M173.849 191.336C162.249 197.236 141.149 205.436 114.949 203.336C107.349 202.736 69.2492 199.636 50.7492 171.936C47.2492 166.636 38.5492 153.736 43.6492 141.936C46.6492 135.036 53.7492 129.736 61.6492 128.536C71.3492 127.136 78.6492 132.536 80.7492 134.136C90.4492 141.536 88.9492 150.336 95.9492 163.436C96.6492 164.836 106.649 182.836 125.249 191.336C145.949 200.836 166.949 193.936 173.849 191.336Z" fill="url(#paint4_linear_70_33)"/>
<defs>
<linearGradient id="paint0_linear_70_33" x1="127.957" y1="53" x2="127.957" y2="203.672" gradientUnits="userSpaceOnUse">
<stop stop-color="#CC55FF"/>
<stop offset="1" stop-color="#55CCFF"/>
</linearGradient>
<linearGradient id="paint1_linear_70_33" x1="127.957" y1="53" x2="127.957" y2="203.672" gradientUnits="userSpaceOnUse">
<stop stop-color="#CC55FF"/>
<stop offset="1" stop-color="#55CCFF"/>
</linearGradient>
<linearGradient id="paint2_linear_70_33" x1="127.957" y1="53" x2="127.957" y2="203.672" gradientUnits="userSpaceOnUse">
<stop stop-color="#CC55FF"/>
<stop offset="1" stop-color="#55CCFF"/>
</linearGradient>
<linearGradient id="paint3_linear_70_33" x1="127.957" y1="53" x2="127.957" y2="203.672" gradientUnits="userSpaceOnUse">
<stop stop-color="#CC55FF"/>
<stop offset="1" stop-color="#55CCFF"/>
</linearGradient>
<linearGradient id="paint4_linear_70_33" x1="127.957" y1="53" x2="127.957" y2="203.672" gradientUnits="userSpaceOnUse">
<stop stop-color="#CC55FF"/>
<stop offset="1" stop-color="#55CCFF"/>
</linearGradient>
</defs>
</svg>
