<svg width="203" height="112" viewBox="0 0 203 112" fill="none" xmlns="http://www.w3.org/2000/svg">
<path d="M11.4211 58.5743C19.2094 42.1779 26.804 30.314 34.1014 22.6325C41.4018 14.9479 47.8529 12 53.5014 12C59.1499 12 65.601 14.9479 72.9014 22.6325C73.289 23.0405 73.6775 23.4603 74.0668 23.892C75.4652 19.711 79.2773 16.8475 83.5106 16.4518C82.8758 15.7339 82.2394 15.0391 81.6014 14.3675C73.0685 5.38547 63.6863 0 53.5014 0C43.3165 0 33.9343 5.38547 25.4014 14.3675C16.8655 23.3527 8.62676 36.4888 0.581738 53.4257C-0.840031 56.4189 0.433864 59.9979 3.42706 61.4197C6.42026 62.8414 9.9993 61.5675 11.4211 58.5743Z" fill="url(#paint0_linear_70_16)"/>
<path d="M119.505 77.0708L109.094 83.0814C112.81 88.7446 116.576 93.6054 120.401 97.6325C128.934 106.615 138.317 112 148.501 112C158.686 112 168.068 106.615 176.601 97.6325C185.137 88.6473 193.376 75.5112 201.421 58.5743C202.843 55.5811 201.569 52.0021 198.576 50.5803C195.583 49.1586 192.004 50.4325 190.582 53.4257C182.793 69.8221 175.199 81.686 167.901 89.3675C160.601 97.0521 154.15 100 148.501 100C142.853 100 136.402 97.0521 129.101 89.3675C125.955 86.0555 122.753 81.966 119.505 77.0708Z" fill="url(#paint1_linear_70_16)"/>
<path d="M135 52.5359C137.667 54.0755 137.667 57.9245 135 59.4641L87.0005 87.1769C84.3338 88.7165 81.0005 86.792 81.0005 83.7128V28.2872C81.0005 25.208 84.3338 23.2835 87.0005 24.8231L135 52.5359Z" fill="url(#paint2_linear_70_16)"/>
<defs>
<linearGradient id="paint0_linear_70_16" x1="137.5" y1="112" x2="137.5" y2="0" gradientUnits="userSpaceOnUse">
<stop stop-color="#55CCFF"/>
<stop offset="1" stop-color="#CC55FF"/>
</linearGradient>
<linearGradient id="paint1_linear_70_16" x1="137.5" y1="112" x2="137.5" y2="0" gradientUnits="userSpaceOnUse">
<stop stop-color="#55CCFF"/>
<stop offset="1" stop-color="#CC55FF"/>
</linearGradient>
<linearGradient id="paint2_linear_70_16" x1="137.5" y1="112" x2="137.5" y2="0" gradientUnits="userSpaceOnUse">
<stop stop-color="#55CCFF"/>
<stop offset="1" stop-color="#CC55FF"/>
</linearGradient>
</defs>
</svg>
