<svg width="256" height="256" viewBox="0 0 256 256" fill="none" xmlns="http://www.w3.org/2000/svg">
<rect width="256" height="256" fill="black"/>
<path d="M39.4211 130.574C47.2094 114.178 54.804 102.314 62.1014 94.6325C69.4018 86.9479 75.8529 84 81.5014 84C87.1499 84 93.601 86.9479 100.901 94.6325C101.289 95.0405 101.677 95.4603 102.067 95.892C103.465 91.711 107.277 88.8475 111.511 88.4518C110.876 87.7339 110.239 87.0391 109.601 86.3675C101.068 77.3855 91.6863 72 81.5014 72C71.3165 72 61.9343 77.3855 53.4014 86.3675C44.8655 95.3527 36.6268 108.489 28.5817 125.426C27.16 128.419 28.4339 131.998 31.4271 133.42C34.4203 134.841 37.9993 133.568 39.4211 130.574Z" fill="url(#paint0_linear_70_33)"/>
<path d="M147.505 149.071L137.094 155.081C140.81 160.745 144.576 165.605 148.401 169.632C156.934 178.615 166.317 184 176.501 184C186.686 184 196.068 178.615 204.601 169.632C213.137 160.647 221.376 147.511 229.421 130.574C230.843 127.581 229.569 124.002 226.576 122.58C223.583 121.159 220.004 122.432 218.582 125.426C210.793 141.822 203.199 153.686 195.901 161.368C188.601 169.052 182.15 172 176.501 172C170.853 172 164.402 169.052 157.101 161.368C153.955 158.055 150.753 153.966 147.505 149.071Z" fill="url(#paint1_linear_70_33)"/>
<path d="M163 124.536C165.667 126.075 165.667 129.924 163 131.464L115 159.177C112.334 160.717 109 158.792 109 155.713V100.287C109 97.208 112.334 95.2835 115 96.8231L163 124.536Z" fill="url(#paint2_linear_70_33)"/>
<defs>
<linearGradient id="paint0_linear_70_33" x1="129.001" y1="72" x2="129.001" y2="184" gradientUnits="userSpaceOnUse">
<stop stop-color="#CC55FF"/>
<stop offset="0.9999" stop-color="#55CCFF"/>
<stop offset="1" stop-color="white" stop-opacity="0"/>
</linearGradient>
<linearGradient id="paint1_linear_70_33" x1="129.001" y1="72" x2="129.001" y2="184" gradientUnits="userSpaceOnUse">
<stop stop-color="#CC55FF"/>
<stop offset="0.9999" stop-color="#55CCFF"/>
<stop offset="1" stop-color="white" stop-opacity="0"/>
</linearGradient>
<linearGradient id="paint2_linear_70_33" x1="129.001" y1="72" x2="129.001" y2="184" gradientUnits="userSpaceOnUse">
<stop stop-color="#CC55FF"/>
<stop offset="0.9999" stop-color="#55CCFF"/>
<stop offset="1" stop-color="white" stop-opacity="0"/>
</linearGradient>
</defs>
</svg>
